<svg xmlns="http://www.w3.org/2000/svg" width="24" height="11" viewBox="0 0 24 11" fill="none">
<path fill-rule="evenodd" clip-rule="evenodd" d="M23.7575 0H0V10.1943H23.7575V0ZM5.09478 8.19269H2.66205V2.25716H4.80218C6.06452 2.25716 6.75003 2.75876 6.75003 3.70343C6.75003 4.23846 6.49924 4.78185 5.85553 5.03265V5.04937C6.61627 5.23328 7.05099 5.76832 7.05099 6.55415C7.05099 7.49881 6.41564 8.19269 5.09478 8.19269ZM3.82407 3.29379V4.68153H4.71022C5.22017 4.68153 5.56293 4.47253 5.56293 3.98766C5.56293 3.56967 5.30377 3.29379 4.66006 3.29379H3.82407ZM3.82407 5.63456V7.15606H4.92758C5.48769 7.15606 5.83045 6.90526 5.83045 6.40367C5.83045 5.93552 5.48769 5.63456 4.81054 5.63456H3.82407ZM11.6623 8.19269H7.69137V2.25716H11.4868V3.30215H8.85339V4.73169H10.9601V5.75996H8.85339V7.1477H11.6623V8.19269ZM13.5492 8.19269H14.7363V3.30215H16.3832V2.25716H11.9274V3.30215H13.5492V8.19269ZM17.0239 8.19269H15.795L17.9937 2.25716H19.1306L21.3376 8.19269H20.1087L19.6991 7.00558H17.4252L17.0239 8.19269ZM18.5538 3.67835L17.7596 6.00239H19.3647L18.5705 3.67835H18.5538Z" fill="white"/>
</svg>