<svg width="22" height="22" viewBox="0 0 22 22" fill="none" xmlns="http://www.w3.org/2000/svg">
<g opacity="0.5">
<path fill-rule="evenodd" clip-rule="evenodd" d="M7.07371 6.51088L6.28084 5.38749L10.5376 2.3832C10.8291 2.18233 11.2187 2.18082 11.4995 2.38671C11.7487 2.56171 12.4943 3.08751 13.5825 3.85542L15.0754 4.90909L15.7532 5.38754L14.9602 6.51083L14.2825 6.03242L12.7913 4.97994C12.3768 4.68749 12.0122 4.43026 11.7053 4.21376L11.7059 12.8328L10.3309 12.8329L10.3303 4.21247L7.07371 6.51088ZM16.2876 9.82712H13.9076V8.45212H16.9751C17.3548 8.45212 17.6626 8.75992 17.6626 9.13962V18.4896C17.6626 18.8693 17.3548 19.1771 16.9751 19.1771H5.06006C4.68036 19.1771 4.37256 18.8693 4.37256 18.4896V9.13962C4.37256 8.75992 4.68036 8.45212 5.06006 8.45212H8.12664V9.82712H5.74756V17.8021H16.2876V9.82712Z" fill="white"></path>
<path d="M6.28084 5.38749L6.20877 5.28537L6.10664 5.35744L6.17872 5.45957L6.28084 5.38749ZM7.07371 6.51088L6.97158 6.58296L7.04366 6.68508L7.14578 6.613L7.07371 6.51088ZM10.5376 2.3832L10.4667 2.28027L10.4655 2.28107L10.5376 2.3832ZM11.4995 2.38671L11.4256 2.48754L11.4277 2.48899L11.4995 2.38671ZM13.5825 3.85542L13.6546 3.75329L13.6546 3.75329L13.5825 3.85542ZM15.0754 4.90909L15.1475 4.80697L15.1475 4.80696L15.0754 4.90909ZM15.7532 5.38754L15.8554 5.45964L15.9274 5.35752L15.8253 5.28543L15.7532 5.38754ZM14.9602 6.51083L14.8881 6.61295L14.9903 6.68503L15.0623 6.58292L14.9602 6.51083ZM14.2825 6.03242L14.3546 5.93031L14.3546 5.9303L14.2825 6.03242ZM12.7913 4.97994L12.8633 4.87781L12.8633 4.8778L12.7913 4.97994ZM11.7053 4.21376L11.7773 4.11161L11.5802 3.97262L11.5803 4.21377L11.7053 4.21376ZM11.7059 12.8328L11.7059 12.9578L11.8309 12.9578L11.8309 12.8328L11.7059 12.8328ZM10.3309 12.8329L10.2059 12.8329L10.2059 12.9579L10.3309 12.9579L10.3309 12.8329ZM10.3303 4.21247L10.4553 4.21246L10.4552 3.97126L10.2582 4.11034L10.3303 4.21247ZM13.9076 9.82712H13.7826V9.95212H13.9076V9.82712ZM16.2876 9.82712H16.4126V9.70212H16.2876V9.82712ZM13.9076 8.45212V8.32712H13.7826V8.45212H13.9076ZM8.12664 8.45212H8.25164V8.32712H8.12664V8.45212ZM8.12664 9.82712V9.95212H8.25164V9.82712H8.12664ZM5.74756 9.82712V9.70212H5.62256V9.82712H5.74756ZM5.74756 17.8021H5.62256V17.9271H5.74756V17.8021ZM16.2876 17.8021V17.9271H16.4126V17.8021H16.2876ZM6.17872 5.45957L6.97158 6.58296L7.17583 6.4388L6.38297 5.31541L6.17872 5.45957ZM10.4655 2.28107L6.20877 5.28537L6.35292 5.48962L10.6097 2.48532L10.4655 2.28107ZM11.5734 2.2859C11.2476 2.04698 10.7997 2.05075 10.4667 2.28027L10.6086 2.48612C10.8584 2.31392 11.1899 2.31467 11.4256 2.48752L11.5734 2.2859ZM13.6546 3.75329C12.5664 2.98542 11.8207 2.45952 11.5714 2.28442L11.4277 2.48899C11.6767 2.6639 12.4222 3.1896 13.5104 3.95755L13.6546 3.75329ZM15.1475 4.80696L13.6546 3.75329L13.5104 3.95754L15.0034 5.01121L15.1475 4.80696ZM15.8253 5.28543L15.1475 4.80697L15.0034 5.01121L15.6811 5.48966L15.8253 5.28543ZM15.0623 6.58292L15.8554 5.45964L15.6511 5.31545L14.8581 6.43873L15.0623 6.58292ZM14.2104 6.13454L14.8881 6.61295L15.0323 6.40871L14.3546 5.93031L14.2104 6.13454ZM12.7192 5.08206L14.2104 6.13455L14.3546 5.9303L12.8633 4.87781L12.7192 5.08206ZM11.6332 4.31591C11.9402 4.5324 12.3047 4.78962 12.7192 5.08207L12.8633 4.8778C12.4489 4.58535 12.0843 4.32812 11.7773 4.11161L11.6332 4.31591ZM11.8309 12.8328L11.8303 4.21375L11.5803 4.21377L11.5809 12.8328L11.8309 12.8328ZM10.3309 12.9579L11.7059 12.9578L11.7059 12.7078L10.3309 12.7079L10.3309 12.9579ZM10.2053 4.21248L10.2059 12.8329L10.4559 12.8329L10.4553 4.21246L10.2053 4.21248ZM7.14578 6.613L10.4023 4.31459L10.2582 4.11034L7.00163 6.40875L7.14578 6.613ZM13.9076 9.95212H16.2876V9.70212H13.9076V9.95212ZM13.7826 8.45212V9.82712H14.0326V8.45212H13.7826ZM16.9751 8.32712H13.9076V8.57712H16.9751V8.32712ZM17.7876 9.13962C17.7876 8.69088 17.4238 8.32712 16.9751 8.32712V8.57712C17.2857 8.57712 17.5376 8.82895 17.5376 9.13962H17.7876ZM17.7876 18.4896V9.13962H17.5376V18.4896H17.7876ZM16.9751 19.3021C17.4238 19.3021 17.7876 18.9383 17.7876 18.4896H17.5376C17.5376 18.8003 17.2857 19.0521 16.9751 19.0521V19.3021ZM5.06006 19.3021H16.9751V19.0521H5.06006V19.3021ZM4.24756 18.4896C4.24756 18.9383 4.61133 19.3021 5.06006 19.3021V19.0521C4.7494 19.0521 4.49756 18.8003 4.49756 18.4896H4.24756ZM4.24756 9.13962V18.4896H4.49756V9.13962H4.24756ZM5.06006 8.32712C4.61133 8.32712 4.24756 8.69088 4.24756 9.13962H4.49756C4.49756 8.82895 4.7494 8.57712 5.06006 8.57712V8.32712ZM8.12664 8.32712H5.06006V8.57712H8.12664V8.32712ZM8.25164 9.82712V8.45212H8.00164V9.82712H8.25164ZM5.74756 9.95212H8.12664V9.70212H5.74756V9.95212ZM5.87256 17.8021V9.82712H5.62256V17.8021H5.87256ZM16.2876 17.6771H5.74756V17.9271H16.2876V17.6771ZM16.1626 9.82712V17.8021H16.4126V9.82712H16.1626Z" fill="white"></path>
</g>
</svg>