<svg width="33" height="33" viewBox="0 0 33 33" fill="none" xmlns="http://www.w3.org/2000/svg">
<path fill-rule="evenodd" clip-rule="evenodd" d="M14.79 21.7038C19.6062 21.2814 23.3431 18.2201 23.3431 14.5063C23.3431 10.5037 19.0025 7.25903 13.6481 7.25903C8.29372 7.25903 3.95312 10.5037 3.95312 14.5063C3.95312 17.6262 6.59049 20.2857 10.2896 21.3069C10.0854 22.3898 9.73373 23.386 9.06406 24.5365C11.2417 23.8738 13.0756 23.0317 14.79 21.7038ZM10.353 14.8481C10.353 15.5911 9.75078 16.1933 9.00785 16.1933C8.26492 16.1933 7.66266 15.5911 7.66266 14.8481C7.66266 14.1052 8.26492 13.5029 9.00785 13.5029C9.75078 13.5029 10.353 14.1052 10.353 14.8481ZM13.6482 16.1933C14.3912 16.1933 14.9934 15.5911 14.9934 14.8481C14.9934 14.1052 14.3912 13.5029 13.6482 13.5029C12.9053 13.5029 12.303 14.1052 12.303 14.8481C12.303 15.5911 12.9053 16.1933 13.6482 16.1933ZM19.6336 14.8481C19.6336 15.5911 19.0313 16.1933 18.2884 16.1933C17.5455 16.1933 16.9432 15.5911 16.9432 14.8481C16.9432 14.1052 17.5455 13.5029 18.2884 13.5029C19.0313 13.5029 19.6336 14.1052 19.6336 14.8481ZM15.6479 23.1513C17.846 22.845 19.8455 22.0399 21.4231 20.8607C23.4682 19.3319 24.8789 17.1013 24.8789 14.506C24.8789 13.6389 24.7215 12.8124 24.4354 12.0393C26.7532 13.1986 28.2794 15.1734 28.2794 17.4146C28.2794 19.5992 26.8294 21.5306 24.6096 22.7004C24.8866 23.8454 25.412 24.8407 26.2388 25.7807C24.4326 25.5414 22.6869 24.7571 21.3152 23.7553C20.7713 23.8355 20.209 23.8775 19.6336 23.8775C18.1961 23.8775 16.8406 23.6153 15.6479 23.1513Z" fill="white"></path>
</svg>