<svg xmlns="http://www.w3.org/2000/svg" width="38" height="38" viewBox="0 0 38 38">
    <g fill="none" fill-rule="evenodd">
        <circle cx="19" cy="19" r="19" fill="#00A2FA"/>
        <g>
            <path d="M0 0H24V24H0z" transform="translate(7 7)"/>
            <path fill="#FFF" fill-rule="nonzero" d="M8.584 19.552c6.95 0 10.75-5.735 10.75-10.708 0-.163-.004-.325-.011-.486.737-.531 1.379-1.194 1.885-1.949-.677.3-1.406.502-2.17.593.78-.466 1.379-1.203 1.661-2.082-.73.43-1.538.744-2.399.913-.69-.731-1.671-1.189-2.758-1.189-2.086 0-3.778 1.686-3.778 3.763 0 .296.033.583.098.858-3.14-.157-5.925-1.654-7.788-3.932-.325.557-.512 1.203-.512 1.892 0 1.306.667 2.458 1.682 3.133-.62-.02-1.202-.189-1.712-.471v.048c0 1.823 1.302 3.344 3.03 3.69-.317.085-.65.132-.995.132-.244 0-.48-.024-.71-.068.48 1.495 1.875 2.583 3.53 2.614-1.294 1.01-2.923 1.61-4.693 1.61-.305 0-.606-.017-.902-.052 1.672 1.068 3.658 1.69 5.792 1.69" transform="translate(7 7)"/>
        </g>
    </g>
</svg>
